<svg version="1.2" baseProfile="tiny-ps" xmlns="http://www.w3.org/2000/svg" viewBox="0 0 1640 440" width="1640" height="440">
	<title>logo-laranja</title>
	<style>
		tspan { white-space:pre }
		.shp0 { fill: #f36e21 } 
	</style>
	<g id="Layer">
		<path id="Layer" fill-rule="evenodd" class="shp0" d="M1395.76 416.3C1394.97 416.3 1394.19 416.12 1393.45 415.78L1323.9 382.9C1322.01 382 1320.81 380.1 1320.81 378.02C1320.81 378.02 1320.9 214.44 1320.9 160.45C1320.9 140.59 1325.73 123.63 1334.87 111.39C1343.6 99.71 1355.56 93.26 1368.54 93.26C1388.21 93.26 1406.05 107.95 1416.58 132.68C1423.13 128.38 1430.45 126.14 1438.09 126.14C1458.31 126.14 1476.58 141.65 1486.99 167.62C1488.16 170.32 1520.47 245 1538.66 286.85C1544.73 279.91 1551.32 267.68 1551.32 247.22L1551.32 27.91C1551.32 26.06 1552.27 24.34 1553.83 23.35C1555.4 22.36 1557.35 22.24 1559.03 23.03L1628.58 55.91C1630.46 56.81 1631.67 58.71 1631.67 60.79L1631.67 280.1C1631.67 298.69 1626.64 314.53 1617.13 325.92C1608.22 336.59 1596.12 342.47 1583.05 342.47C1563.07 342.47 1545.23 328.93 1535.33 306.24L1534.4 304.09C1527.97 307.7 1520.85 309.58 1513.5 309.59L1513.49 309.59C1493.52 309.59 1475.68 296.05 1465.78 273.37C1453.48 245.18 1425.24 179.98 1412.76 151.12C1405.29 161.32 1401.24 175.97 1401.24 193.32C1401.24 247.32 1401.15 410.89 1401.15 410.89C1401.14 412.74 1400.2 414.46 1398.64 415.45C1397.77 416.01 1396.77 416.3 1395.76 416.3ZM1543.33 297.56L1545.24 301.94C1553.37 320.56 1567.51 331.68 1583.06 331.68C1601.28 331.68 1620.89 315.54 1620.89 280.1L1620.89 64.21L1562.13 36.43L1562.13 247.22C1562.13 268.57 1555.49 286.26 1543.33 297.56ZM1331.61 374.61L1390.37 402.39C1390.39 368.12 1390.46 239.93 1390.46 193.34C1390.46 170.98 1396.64 152.23 1407.96 140.03L1407.5 138.97C1407.48 138.93 1407.46 138.88 1407.44 138.83C1398.74 117.06 1384.2 104.06 1368.54 104.06C1344.35 104.06 1331.69 132.43 1331.69 160.45C1331.7 209.83 1331.62 350.84 1331.61 374.61ZM1420.94 142.81C1432.32 169.1 1462.78 239.48 1475.69 269.05C1483.82 287.68 1497.95 298.8 1513.5 298.8L1513.51 298.8C1519.34 298.8 1524.99 297.2 1530.06 294.14C1511.92 252.43 1477.41 172.67 1477.05 171.84C1477.03 171.79 1477.01 171.75 1476.99 171.7C1468.29 149.93 1453.74 136.94 1438.09 136.94C1432.01 136.94 1426.14 138.95 1420.94 142.81Z" />
		<path id="Layer" class="shp0" d="M10.44 194.35C11.4 193.55 12.41 193.03 13.48 192.82C14.55 192.59 15.55 192.48 16.51 192.48L33.15 192.48C34.47 192.48 35.61 192.72 36.57 193.2C37.52 193.68 38.33 194.32 38.99 195.13C39.66 195.93 40.19 196.84 40.6 197.87C41 198.9 41.38 199.96 41.75 201.06L45.17 215.13C46.27 212.86 47.87 210.28 49.97 207.37C52.07 204.48 54.73 201.77 57.96 199.24C61.19 196.72 65.04 194.6 69.47 192.87C73.92 191.15 79.08 190.3 84.96 190.3C93.33 190.3 100.94 191.91 107.77 195.14C114.61 198.35 120.43 202.75 125.25 208.33C130.06 213.9 133.79 220.4 136.43 227.85C139.08 235.3 140.4 243.26 140.4 251.71L140.4 323.91C140.4 326.71 139.79 328.81 138.58 330.25C137.37 331.69 135.43 332.39 132.79 332.39L107.33 332.39C104.16 332.39 102 331.87 100.83 330.8C99.65 329.74 99.06 327.66 99.06 324.57L99.06 252.81C99.06 249.66 98.35 246.67 96.91 243.83C95.48 241 93.59 238.5 91.24 236.34C88.89 234.17 86.23 232.46 83.25 231.21C80.27 229.96 77.23 229.34 74.15 229.34C71.5 229.34 68.81 229.93 66.05 231.1C63.29 232.27 60.75 233.91 58.45 236C56.13 238.09 54.18 240.55 52.6 243.39C51.03 246.22 50.13 249.29 49.9 252.6L49.9 324.24C49.9 325.5 49.66 326.75 49.19 328C48.71 329.24 47.99 330.2 47.04 330.86C46.09 331.45 45.18 331.85 44.34 332.07C43.49 332.29 42.52 332.4 41.42 332.4L16.5 332.4C13.34 332.4 11.06 331.64 9.67 330.1C8.27 328.55 7.57 326.5 7.57 323.92L7.57 200.62C7.57 199.23 7.88 197.95 8.51 196.77C9.13 195.6 10 194.68 11.1 194.02L10.44 194.35Z" />
		<path id="Layer" class="shp0" d="M312.99 170.56C312.99 168.28 313.75 166.57 315.25 165.43C316.75 164.3 318.9 163.21 321.7 162.18L346.72 153.47C347.08 153.4 347.43 153.36 347.76 153.36L348.7 153.36C351.42 153.36 353.24 154.15 354.16 155.73C355.08 157.31 355.54 159.39 355.54 161.96L355.43 196.68L373.84 196.68C376.19 196.68 378.1 197.38 379.57 198.78C381.03 200.17 381.77 202.27 381.77 205.06L381.77 226.34C381.77 229.42 381.04 231.68 379.57 233.12C378.1 234.55 376.19 235.27 373.84 235.27L355.43 235.27L355.54 323.89C355.54 326.69 354.73 328.79 353.11 330.22C351.49 331.66 349.25 332.37 346.39 332.37L321.48 332.37C315.82 332.37 312.99 329.55 312.99 323.89L312.88 235.27L304.83 235.27C299.17 235.27 296.35 232.3 296.35 226.35L296.35 205.07C296.35 199.49 299.17 196.7 304.83 196.7L312.88 196.7L312.99 170.56Z" />
		<path id="Layer" class="shp0" d="M394.51 200.98C394.51 198.63 395.18 196.61 396.49 194.92C397.81 193.23 399.88 192.38 402.67 192.38L427.92 192.38C428.8 192.38 429.76 192.58 430.78 192.99C431.81 193.39 432.77 193.98 433.65 194.75C434.53 195.52 435.29 196.42 435.92 197.46C436.54 198.49 436.86 199.66 436.86 200.98L436.86 323.89C436.86 326.69 436.09 328.79 434.54 330.22C433 331.66 430.79 332.37 427.93 332.37L402.68 332.37C397.24 332.37 394.52 329.55 394.52 323.89L394.52 200.98L394.51 200.98Z" />
		<path id="Layer" class="shp0" d="M457.03 194.35C457.98 193.55 458.99 193.03 460.07 192.82C461.14 192.59 462.14 192.48 463.1 192.48L479.74 192.48C481.06 192.48 482.2 192.72 483.15 193.2C484.1 193.68 484.91 194.32 485.58 195.13C486.24 195.93 486.77 196.84 487.17 197.87C487.58 198.9 487.96 199.96 488.32 201.06L491.74 215.13C492.84 212.86 494.18 210.28 495.76 207.37C497.34 204.48 499.43 201.77 502.04 199.24C504.65 196.72 507.92 194.6 511.85 192.87C515.78 191.15 520.68 190.3 526.57 190.3C535.98 190.3 544.2 192.29 551.26 196.28C558.33 200.28 564.12 205.65 568.68 212.39C570.07 210.12 571.99 207.68 574.41 205.07C576.84 202.48 579.74 200.08 583.12 197.88C586.5 195.68 590.38 193.87 594.74 192.44C599.11 191.01 603.95 190.3 609.24 190.3C617.62 190.3 625.1 191.91 631.67 195.14C638.25 198.35 643.83 202.75 648.43 208.33C653.01 213.9 656.51 220.4 658.9 227.85C661.29 235.3 662.48 243.26 662.48 251.71L662.48 323.91C662.48 326.71 661.87 328.81 660.67 330.25C659.45 331.69 657.52 332.39 654.89 332.39L629.42 332.39C626.26 332.39 624.09 331.87 622.92 330.8C621.73 329.74 621.15 327.66 621.15 324.57L621.15 251.72C621.15 248.55 620.64 245.62 619.66 242.91C618.67 240.19 617.3 237.82 615.53 235.8C613.76 233.77 611.62 232.19 609.08 231.05C606.53 229.91 603.73 229.35 600.65 229.35C597.86 229.35 595.2 229.89 592.71 231C590.21 232.1 588 233.63 586.1 235.57C584.17 237.52 582.66 239.87 581.52 242.63C580.38 245.39 579.81 248.42 579.81 251.73L579.81 323.93C579.81 326.73 579.21 328.83 578 330.27C576.79 331.71 574.86 332.41 572.21 332.41L569.9 332.41L569.03 332.41L546.76 332.41C543.59 332.41 541.43 331.89 540.25 330.82C539.07 329.76 538.48 327.68 538.48 324.59L538.48 251.74C538.48 248.57 538.01 245.64 537.1 242.93C536.18 240.21 534.86 237.84 533.14 235.82C531.42 233.79 529.32 232.21 526.85 231.07C524.38 229.93 521.62 229.37 518.53 229.37C515.89 229.37 513.3 229.9 510.77 230.96C508.22 232.03 505.95 233.54 503.94 235.48C501.92 237.43 500.23 239.77 498.87 242.49C497.51 245.2 496.72 248.22 496.5 251.52L496.5 324.26C496.5 325.52 496.26 326.77 495.78 328.02C495.3 329.26 494.58 330.22 493.63 330.88C492.68 331.47 491.78 331.87 490.93 332.09C490.09 332.31 489.11 332.42 488.01 332.42L463.1 332.42C459.94 332.42 457.66 331.66 456.26 330.12C454.87 328.57 454.16 326.52 454.16 323.94L454.16 200.62C454.16 199.23 454.47 197.95 455.1 196.77C455.72 195.6 456.58 194.68 457.69 194.02L457.03 194.35Z" />
		<path id="Layer" fill-rule="evenodd" class="shp0" d="M673.65 262.49C673.65 255.73 674.51 249.22 676.24 242.98C677.96 236.73 680.39 230.95 683.51 225.62C686.63 220.29 690.38 215.44 694.76 211.07C699.13 206.7 704 202.97 709.36 199.88C714.73 196.79 720.51 194.41 726.73 192.72C732.94 191.04 739.42 190.18 746.18 190.18C756.17 190.18 765.55 192.04 774.33 195.75C783.12 199.46 790.76 204.57 797.26 211.07C803.77 217.58 808.9 225.22 812.69 234C816.49 242.79 818.38 252.28 818.38 262.5C818.38 269.25 817.51 275.74 815.78 281.95C814.06 288.16 811.64 293.94 808.5 299.31C805.37 304.68 801.63 309.54 797.26 313.91C792.89 318.29 788.02 322.03 782.66 325.15C777.29 328.28 771.54 330.69 765.4 332.37C759.26 334.07 752.86 334.91 746.17 334.91C739.41 334.91 732.92 334.06 726.72 332.37C720.51 330.69 714.72 328.28 709.35 325.15C703.99 322.03 699.12 318.29 694.75 313.91C690.37 309.54 686.63 304.68 683.5 299.31C680.38 293.94 677.95 288.16 676.23 281.95C674.52 275.73 673.65 269.25 673.65 262.49ZM713.89 262.49C713.89 267.34 714.65 271.88 716.16 276.1C717.66 280.33 719.8 283.97 722.55 287.06C725.3 290.16 728.65 292.6 732.58 294.4C736.52 296.2 740.95 297.09 745.87 297.09C750.66 297.09 754.97 296.2 758.83 294.4C762.68 292.6 765.96 290.16 768.63 287.06C771.31 283.98 773.37 280.33 774.81 276.1C776.24 271.88 776.96 267.33 776.96 262.49C776.96 257.79 776.24 253.3 774.81 249.03C773.37 244.77 771.31 241.03 768.63 237.79C765.95 234.56 762.68 232 758.83 230.13C754.97 228.26 750.66 227.32 745.87 227.32C740.95 227.32 736.53 228.26 732.58 230.13C728.66 232.01 725.31 234.56 722.55 237.79C719.8 241.03 717.67 244.77 716.16 249.03C714.64 253.3 713.89 257.79 713.89 262.49Z" />
		<path id="Layer" class="shp0" d="M814.11 203.29C812.64 200.28 812.36 197.71 813.28 195.57C814.2 193.44 816.39 192.37 819.85 192.37L848.06 192.37C849.98 192.37 851.64 192.88 853.08 193.91C854.51 194.94 855.52 196.4 856.11 198.32C857.36 202.22 858.74 206.59 860.25 211.45C861.75 216.3 863.34 221.27 864.99 226.38C866.65 231.5 868.28 236.56 869.89 241.59C871.51 246.64 873 251.27 874.36 255.49C875.71 259.71 876.93 263.39 878 266.5C879.06 269.63 879.85 271.85 880.37 273.17L903.74 198.33C904.69 195.98 905.78 194.4 906.98 193.59C908.19 192.79 909.9 192.38 912.11 192.38L941.1 192.38C943.23 192.38 944.86 192.64 945.95 193.15C947.05 193.67 947.79 194.37 948.15 195.25C948.53 196.14 948.59 197.14 948.38 198.28C948.15 199.43 947.79 200.62 947.28 201.87L894.81 327.64C894 328.96 893.04 330.08 891.94 331C890.84 331.92 889.18 332.37 886.98 332.37L873.87 332.37C870.93 332.37 868.85 331.95 867.64 331.11C866.42 330.26 865.52 329.11 864.93 327.64L814.11 203.29Z" />
		<path id="Layer" fill-rule="evenodd" class="shp0" d="M289.67 295.95C285.43 303.64 280.02 310.38 273.43 316.12C266.84 321.86 259.25 326.18 250.68 329.07C241.14 332.27 231.53 333.56 221.87 332.94C212.2 332.32 203.12 330 194.64 326C186.16 321.99 178.63 316.44 172.06 309.35C165.49 302.26 160.55 293.8 157.24 283.99C155.18 277.86 153.93 271.66 153.5 265.41C153.06 259.16 153.37 253.06 154.44 247.13C155.51 241.19 157.3 235.45 159.81 229.91C162.33 224.37 165.52 219.28 169.38 214.64C173.25 210.01 177.77 205.9 182.91 202.3C188.06 198.71 193.81 195.84 200.15 193.71C205.93 191.76 211.8 190.64 217.74 190.35C223.69 190.06 229.52 190.5 235.22 191.68C240.93 192.86 246.43 194.74 251.72 197.3C257 199.86 261.85 202.98 266.26 206.65C270.67 210.32 274.55 214.52 277.88 219.25C281.22 223.98 283.82 229.14 285.7 234.71C286.92 238.33 287.87 241.31 288.53 243.63C289.2 245.97 289.27 247.98 288.76 249.66C288.23 251.35 286.94 252.84 284.85 254.13C282.76 255.41 279.52 256.79 275.13 258.27L199.91 283.58C202.11 287.8 204.77 291.05 207.9 293.33C211.04 295.62 214.29 297.17 217.68 298.01C221.06 298.86 224.45 299.12 227.84 298.84C231.23 298.55 234.32 297.94 237.11 297C239.61 296.15 242.11 295.04 244.57 293.61C247.05 292.21 249.37 290.65 251.54 288.95C253.72 287.25 255.65 285.47 257.31 283.63C258.97 281.79 260.23 280.04 261.06 278.35C261.87 277.08 262.6 276.08 263.25 275.35C263.9 274.63 264.67 274.12 265.57 273.82C266.48 273.51 267.5 273.52 268.65 273.83C269.8 274.14 271.17 274.69 272.75 275.47L288.05 284.28C289.12 284.94 289.88 285.59 290.33 286.25C290.79 286.92 291.14 287.62 291.4 288.39C291.86 289.79 291.89 291.12 291.46 292.37C291.05 293.64 290.45 294.83 289.67 295.95ZM210.13 225.83C207.41 226.74 204.96 228.17 202.79 230.1C200.61 232.03 198.71 234.28 197.09 236.85C195.47 239.41 194.16 242.13 193.15 245.03C192.15 247.93 191.49 250.75 191.17 253.49L244.56 235.53C242.18 233.31 239.76 231.34 237.27 229.61C234.79 227.89 232.17 226.52 229.38 225.52C226.6 224.52 223.64 224 220.49 223.98C217.34 223.95 213.89 224.56 210.13 225.83Z" />
		<path id="Layer" class="shp0" d="M1092.86 200.98C1092.86 198.63 1093.52 196.61 1094.85 194.92C1096.17 193.23 1098.23 192.38 1101.02 192.38L1126.26 192.38C1127.14 192.38 1128.09 192.58 1129.12 192.99C1130.15 193.39 1131.1 193.98 1131.99 194.75C1132.88 195.52 1133.62 196.42 1134.25 197.46C1134.87 198.49 1135.18 199.66 1135.18 200.98L1135.18 323.89C1135.18 326.69 1134.41 328.79 1132.88 330.22C1131.33 331.66 1129.13 332.37 1126.26 332.37L1101.02 332.37C1095.58 332.37 1092.86 329.55 1092.86 323.89L1092.86 200.98Z" />
		<path id="Layer" class="shp0" d="M1173.46 288.83C1175.45 290.82 1177.6 292.49 1179.91 293.85C1182.23 295.2 1184.44 296.31 1186.58 297.16C1188.71 298.01 1190.58 298.61 1192.2 298.98C1193.81 299.35 1194.92 299.53 1195.51 299.53C1196.9 299.53 1198.69 299.46 1200.86 299.36C1203.03 299.25 1205.11 298.92 1207.08 298.37C1209.07 297.82 1210.77 296.92 1212.2 295.67C1213.64 294.42 1214.36 292.66 1214.36 290.38C1214.36 288.33 1213.95 286.69 1213.14 285.47C1212.33 284.27 1211.15 283.24 1209.62 282.4C1208.07 281.55 1206.18 280.8 1203.93 280.14C1201.69 279.48 1199.17 278.71 1196.38 277.83C1187.57 275.47 1180.3 272.65 1174.56 269.34C1168.83 266.03 1164.29 262.34 1160.95 258.26C1157.6 254.18 1155.27 249.79 1153.95 245.08C1152.63 240.38 1151.97 235.42 1151.97 230.21C1151.97 224.1 1153.18 218.55 1155.61 213.56C1158.03 208.57 1161.49 204.28 1165.96 200.71C1170.45 197.15 1175.82 194.39 1182.06 192.45C1188.3 190.5 1195.25 189.52 1202.89 189.52C1207.52 189.52 1211.85 189.91 1215.89 190.68C1219.93 191.45 1223.79 192.66 1227.47 194.32C1231.15 195.97 1234.73 198.11 1238.21 200.71C1241.71 203.32 1245.17 206.43 1248.63 210.03C1249.88 211.5 1250.52 212.88 1250.56 214.17C1250.59 215.45 1249.77 216.83 1248.07 218.3C1245.21 220.65 1242.47 222.96 1239.87 225.24C1237.25 227.53 1234.55 230.06 1231.77 232.84C1230.88 233.58 1230 234.04 1229.12 234.22C1228.25 234.41 1227.4 234.38 1226.59 234.16C1225.78 233.94 1225.01 233.58 1224.27 233.06C1223.54 232.55 1222.87 231.92 1222.29 231.19C1219.72 228.33 1216.78 226.39 1213.47 225.41C1210.16 224.41 1207.07 223.92 1204.21 223.92C1200.61 223.92 1197.75 224.55 1195.61 225.79C1193.48 227.05 1192.49 228.96 1192.63 231.52C1192.78 233.43 1193.49 234.93 1194.79 235.99C1196.08 237.05 1197.65 237.92 1199.52 238.58C1201.4 239.23 1203.38 239.77 1205.48 240.17C1207.57 240.57 1209.5 241.04 1211.26 241.55C1217.88 243.68 1223.94 245.99 1229.45 248.49C1234.97 250.99 1239.74 254.05 1243.78 257.7C1247.81 261.34 1250.95 265.69 1253.2 270.76C1255.44 275.83 1256.56 282.01 1256.56 289.28C1256.56 296.55 1255.11 303.05 1252.21 308.79C1249.31 314.52 1245.31 319.33 1240.24 323.23C1235.17 327.13 1229.17 330.1 1222.22 332.17C1215.28 334.22 1207.8 335.25 1199.79 335.25C1195.23 335.25 1190.6 334.84 1185.9 334.04C1181.21 333.23 1176.65 331.93 1172.24 330.13C1167.83 328.32 1163.64 326 1159.67 323.18C1155.7 320.36 1152.18 316.91 1149.09 312.87C1148.28 311.83 1147.68 310.75 1147.27 309.62C1146.86 308.48 1146.68 307.35 1146.72 306.25C1146.76 305.15 1146.98 304.15 1147.39 303.23C1147.79 302.31 1148.43 301.52 1149.32 300.85L1163.53 286.63C1165.3 285.16 1166.86 284.64 1168.22 285.09C1169.58 285.52 1171.33 286.77 1173.46 288.83Z" />
		<path id="Layer" class="shp0" d="M437.92 160.68C437.92 172.96 427.96 182.93 415.67 182.93C403.38 182.93 393.42 172.96 393.42 160.68C393.42 148.4 403.38 138.43 415.67 138.43C427.96 138.43 437.92 148.4 437.92 160.68Z" />
		<path id="Layer" class="shp0" d="M1135.55 160.68C1135.55 172.96 1125.59 182.93 1113.3 182.93C1101.02 182.93 1091.05 172.96 1091.05 160.68C1091.05 148.4 1101.02 138.43 1113.3 138.43C1125.59 138.43 1135.55 148.4 1135.55 160.68Z" />
		<path id="Layer" fill-rule="evenodd" class="shp0" d="M1076.97 295.95C1072.73 303.64 1067.32 310.38 1060.73 316.12C1054.13 321.86 1046.56 326.18 1037.98 329.07C1028.44 332.27 1018.83 333.56 1009.16 332.94C999.49 332.32 990.42 330 981.94 326C973.46 321.99 965.93 316.44 959.36 309.35C952.79 302.26 947.85 293.8 944.54 283.99C942.48 277.86 941.23 271.66 940.79 265.41C940.36 259.16 940.67 253.06 941.73 247.13C942.8 241.19 944.59 235.45 947.11 229.91C949.63 224.37 952.82 219.28 956.68 214.64C960.55 210.01 965.06 205.9 970.21 202.3C975.35 198.71 981.11 195.84 987.44 193.71C993.22 191.76 999.09 190.64 1005.03 190.35C1010.97 190.06 1016.81 190.5 1022.51 191.68C1028.22 192.86 1033.71 194.74 1039 197.3C1044.28 199.86 1049.12 202.98 1053.54 206.65C1057.96 210.32 1061.82 214.52 1065.16 219.25C1068.5 223.98 1071.11 229.14 1072.98 234.71C1074.2 238.33 1075.14 241.31 1075.81 243.63C1076.49 245.97 1076.56 247.98 1076.04 249.66C1075.52 251.35 1074.22 252.84 1072.13 254.13C1070.03 255.41 1066.8 256.79 1062.42 258.27L987.19 283.58C989.39 287.8 992.05 291.05 995.19 293.33C998.32 295.62 1001.58 297.17 1004.96 298.01C1008.34 298.86 1011.73 299.12 1015.13 298.84C1018.52 298.55 1021.6 297.94 1024.39 297C1026.89 296.15 1029.39 295.04 1031.86 293.61C1034.33 292.21 1036.65 290.65 1038.83 288.95C1041.01 287.25 1042.93 285.47 1044.6 283.63C1046.26 281.79 1047.52 280.04 1048.35 278.35C1049.15 277.08 1049.89 276.08 1050.54 275.35C1051.18 274.63 1051.96 274.12 1052.87 273.82C1053.78 273.51 1054.8 273.52 1055.95 273.83C1057.1 274.14 1058.47 274.69 1060.06 275.47L1075.35 284.28C1076.43 284.94 1077.18 285.59 1077.64 286.25C1078.1 286.92 1078.45 287.62 1078.71 288.39C1079.18 289.79 1079.2 291.12 1078.77 292.37C1078.36 293.64 1077.75 294.83 1076.97 295.95ZM997.43 225.83C994.72 226.74 992.27 228.17 990.09 230.1C987.92 232.03 986.02 234.28 984.4 236.85C982.78 239.41 981.46 242.13 980.47 245.03C979.47 247.93 978.81 250.75 978.49 253.49L1031.87 235.53C1029.49 233.31 1027.07 231.34 1024.58 229.61C1022.11 227.89 1019.48 226.52 1016.69 225.52C1013.91 224.52 1010.95 224 1007.8 223.98C1004.65 223.95 1001.19 224.56 997.43 225.83Z" />
		<path id="Layer" class="shp0" d="M738.7 148.92C739.08 147.17 739.86 145.91 741.05 145.19C742.24 144.46 743.49 144.1 744.8 144.1L774.46 144.1C775.61 144.1 776.47 144.32 777.05 144.79C777.63 145.24 778.01 145.82 778.2 146.51C778.39 147.21 778.41 147.99 778.26 148.87C778.11 149.75 777.84 150.61 777.46 151.45L766.2 176.16C765.28 177.86 764.38 179.08 763.49 179.84C762.6 180.61 761.44 181 759.99 181L734.81 181C733.66 181 732.87 180.69 732.46 180.07C732.04 179.46 731.82 178.73 731.82 177.89C731.82 177.05 731.94 176.13 732.17 175.13C732.39 174.14 732.59 173.29 732.74 172.6L738.7 148.92Z" />
	</g>
</svg>